<?xml version="1.0" encoding="UTF-8" standalone="no"?>
<svg
   width="1221"
   height="1422"
   viewBox="0 0 1221 1422"
   fill="none"
   version="1.1"
   id="svg44"
   xmlns="http://www.w3.org/2000/svg"
   xmlns:svg="http://www.w3.org/2000/svg">
  <defs
     id="defs48" />
  <rect
     style="fill:#ffffff;stroke:#000000;stroke-width:0"
     id="rect430"
     width="1165.8713"
     height="1549.4178"
     x="-2694.2825"
     y="-94.990158" />
  <path
     d="m 594.74256,194.7698 c -42.1452,21.51507 -73.9306,32.57998 -108.7272,37.76129 -46.3946,6.84962 -91.0195,1.49284 -136.5289,-16.33399 -9.031,-3.51262 -30.2805,-14.05065 -43.385,-21.51507 -5.578,-3.2492 -10.5359,-5.6202 -10.9786,-5.35675 -0.4426,0.35122 -4.7816,5.18104 -9.5625,10.88924 -4.7809,5.62018 -8.9423,10.45018 -9.2081,10.71364 -0.2657,0.26341 -2.8335,3.24916 -5.7549,6.67409 -5.5782,6.67408 -16.026,18.79271 -39.3118,46.01614 -27.1822,31.70186 -54.4525,63.6672 -59.6765,69.81442 -2.9218,3.33707 -7.6143,8.78118 -10.4477,12.03094 l -5.2238,5.88373 4.3384,6.41069 c 2.3906,3.51247 6.1092,9.13272 8.3228,12.55712 2.1249,3.33708 7.1718,11.06514 11.0675,17.12428 28.5985,44.17243 42.2337,71.65872 50.1138,100.98933 4.8697,18.00275 5.4012,22.21757 5.4012,42.15197 0.088,15.98304 -0.2658,20.63749 -2.0364,30.29717 -5.5784,31.17492 -13.5469,58.39849 -34.6195,118.9921 -26.2079,75.1712 -37.7182,117.58664 -42.6764,157.63083 -1.7708,14.66568 -1.5052,56.11456 0.5312,68.49707 3.453,21.51522 10.2707,41.44584 21.4268,62.70438 5.0467,9.56786 16.3799,27.83785 17.9736,29.06489 0.3542,0.26346 1.8594,2.19812 3.3645,4.38869 16.2915,23.5395 49.5824,52.8678 84.5559,74.4726 34.5308,21.3339 49.9365,28.7111 145.0293,69.0226 84.6442,35.8248 118.8205,54.7949 158.4867,88.0829 12.7499,10.6218 15.5834,12.993 15.9372,13.4296 0.2657,0.2634 2.7446,2.3712 5.5781,4.7426 5.755,4.8328 4.3383,5.1866 14.3435,-3.4253 41.5256,-35.5613 62.0668,-49.0888 111.118,-73.2379 28.1555,-13.8739 30.0148,-14.6643 81.0143,-36.5326 63.8373,-27.3108 90.2223,-39.5134 113.7738,-52.7774 17.3516,-9.6582 48.1629,-30.9996 60.29768,-41.802 16.73426,-14.747 26.20426,-24.759 39.49086,-41.5309 22.6663,-28.5455 38.3316,-64.98839 43.2925,-100.55427 2.4766,-17.47506 2.3035,-50.75778 -0.3539,-69.81368 -4.9608,-36.09284 -13.9038,-70.25404 -33.1148,-126.01704 -21.9586,-63.93068 -23.5545,-68.4978 -29.923,-89.30994 -12.39826,-40.04418 -17.62256,-73.06341 -15.85356,-99.84812 2.2132,-33.01923 15.76316,-67.53047 46.31106,-117.76205 4.8705,-8.07884 24.8794,-38.90296 29.0423,-44.61055 0.8807,-1.31737 1.5883,-2.81088 1.4152,-3.24975 -0.1807,-0.61427 -33.6493,-40.83461 -37.4584,-45.13751 -0.5269,-0.52694 -3.538,-4.12749 -6.7223,-7.99152 -27.98086,-33.4581 -48.17044,-57.52007 -53.83884,-64.19407 -3.7187,-4.39089 -13.806,-16.50954 -22.5759,-26.95972 l -15.7557,-18.96837 -5.0512,2.81007 c -2.7401,1.49286 -7.174,4.12744 -9.8238,5.70813 -8.4161,5.09332 -32.7625,16.50953 -43.8299,20.63696 -32.3176,12.11872 -62.0668,17.47542 -96.0661,17.56327 -21.8698,0 -36.0364,-1.75631 -57.5517,-6.93747 -29.4834,-7.11318 -50.0253,-15.01678 -87.6545,-33.72165 l -19.0363,-9.39628 z"
     fill="#cd9900"
     id="path42-6-5"
     style="fill:none;stroke:#000000;stroke-width:21.153;stroke-dasharray:none;stroke-opacity:1" />
  <path
     d="m -729.70851,61.213763 c -44.53307,22.73408 -78.11939,34.4259 -114.88745,39.900777 -49.02327,7.23772 -96.17649,1.57742 -144.26438,-17.259447 -9.5427,-3.71164 -31.99616,-14.84674 -45.84306,-22.73408 -5.8941,-3.43329 -11.1329,-5.93863 -11.6006,-5.66025 -0.4677,0.37112 -5.0526,5.47459 -10.1043,11.5062 -5.0518,5.93861 -9.449,11.04227 -9.7298,11.32067 -0.2808,0.27832 -2.994,3.43324 -6.081,7.05222 -5.8942,7.05222 -16.934,19.857477 -41.5391,48.623327 -28.7223,33.49803 -57.5377,67.27447 -63.0576,73.76997 -3.0874,3.52615 -8.0458,9.27871 -11.0397,12.71259 l -5.5198,6.2171 4.5842,6.7739 c 2.5261,3.71149 6.4554,9.65018 8.7944,13.2686 2.2453,3.52615 7.5781,11.69206 11.6946,18.09449 30.2188,46.67516 44.6265,75.71878 52.9531,106.7112 5.1456,19.02276 5.7072,23.47638 5.7072,44.54022 0.093,16.88861 -0.2808,21.80677 -2.1517,32.01375 -5.8945,32.94123 -14.3145,61.70724 -36.581,125.73396 -27.6928,79.43026 -39.8552,124.24888 -45.0944,166.56189 -1.8711,15.49661 -1.5905,59.2939 0.5613,72.37797 3.6487,22.73424 10.8526,43.7941 22.6408,66.2571 5.3327,10.10995 17.308,29.41508 18.992,30.71164 0.3742,0.2784 1.9647,2.32266 3.5551,4.63737 17.2145,24.87316 52.3916,55.86315 89.3466,78.69205 36.4873,22.54262 52.7658,30.33782 153.24635,72.93322 89.43998,37.8546 125.5526,57.8995 167.4663,93.0735 13.47223,11.2236 16.46624,13.7292 16.84009,14.1905 0.28079,0.2784 2.90015,2.5056 5.89416,5.0113 6.08107,5.1066 4.58407,5.4805 15.15616,-3.6193 43.87842,-37.5762 65.58338,-51.8701 117.41373,-77.3875 29.75076,-14.6599 31.71547,-15.4951 85.60441,-38.6024 67.45423,-28.8582 95.33413,-41.7522 120.22002,-55.7677 18.33471,-10.20542 50.89174,-32.75592 63.71411,-44.17042 17.68245,-15.58247 27.68899,-26.16172 41.72837,-43.88395 23.95046,-30.16278 40.5034,-68.67045 45.7453,-106.25143 2.61697,-18.46516 2.43402,-53.63361 -0.37386,-73.76918 -5.24189,-38.13779 -14.69163,-74.2345 -34.99105,-133.15693 -23.20276,-67.55286 -24.88908,-72.37875 -31.61843,-94.37006 -13.10077,-42.31301 -18.62107,-77.20305 -16.7518,-105.50532 2.33857,-34.89004 16.65635,-71.35662 48.93498,-124.43422 5.14645,-8.53658 26.28903,-41.10713 30.68777,-47.1381 0.93066,-1.39201 1.67836,-2.97014 1.49542,-3.43388 -0.19091,-0.64907 -35.55582,-43.14822 -39.58071,-47.69491 -0.5568,-0.5568 -3.73853,-4.36135 -7.10321,-8.4443 -29.56621,-35.35378 -50.8997,-60.77905 -56.8893,-67.83119 -3.92943,-4.639677 -14.58822,-17.444937 -23.85501,-28.487207 l -16.64839,-20.04309 -5.33735,2.96928 c -2.89538,1.57744 -7.58047,4.36129 -10.38039,6.03154 -8.89293,5.3819 -34.6188,17.44494 -46.31324,21.80622 -34.1487,12.80534 -65.58338,18.465557 -101.50907,18.558377 -23.10889,0 -38.07813,-1.85582 -60.81238,-7.330537 -31.15389,-7.5162 -52.85964,-15.8676 -92.62091,-35.63226 l -20.11488,-9.92866 z"
     fill="#cd9900"
     id="path42"
     style="stroke-width:0.795432" />
  <path
     d="m -728.60361,90.976481 c -42.1452,21.515079 -73.93062,32.579979 -108.72718,37.761289 -46.39463,6.84963 -91.0195,1.49284 -136.5289,-16.33399 -9.03102,-3.51262 -30.28051,-14.050649 -43.38501,-21.515069 -5.578,-3.2492 -10.5359,-5.6202 -10.9786,-5.35675 -0.4426,0.35122 -4.7816,5.18104 -9.5625,10.88924 -4.7809,5.620179 -8.9423,10.450179 -9.2081,10.713649 -0.2657,0.2634 -2.8335,3.24915 -5.7549,6.67408 -5.5782,6.67408 -16.026,18.79271 -39.3118,46.01614 -27.1822,31.70186 -54.4525,63.6672 -59.6765,69.81442 -2.9218,3.33707 -7.6143,8.78118 -10.4477,12.03094 l -5.2238,5.88373 4.3384,6.41069 c 2.3906,3.51248 6.1092,9.13273 8.3228,12.55713 2.1249,3.33708 7.1718,11.06514 11.0675,17.12427 28.5985,44.17243 42.2337,71.65873 50.1138,100.98934 4.8697,18.00275 5.4012,22.21757 5.4012,42.15197 0.088,15.98304 -0.2658,20.63749 -2.0364,30.29717 -5.5784,31.17492 -13.5469,58.39849 -34.6195,118.9921 -26.2079,75.1712 -37.7182,117.58664 -42.6764,157.63083 -1.7708,14.66568 -1.5052,56.11456 0.5312,68.49706 3.453,21.51523 10.2707,41.44585 21.4268,62.70439 5.0467,9.56785 16.3799,27.83784 17.9736,29.06488 0.3542,0.26347 1.8594,2.19812 3.3645,4.38871 16.2915,23.53946 49.5824,52.8678 84.5559,74.47262 34.5308,21.33384 49.93648,28.71108 145.02929,69.02258 84.6442,35.8248 118.82046,54.7949 158.48675,88.0829 12.74985,10.6218 15.58332,12.993 15.93712,13.4296 0.26573,0.2634 2.74464,2.3712 5.57812,4.7426 5.755,4.8328 4.33827,5.1866 14.34348,-3.4253 41.52566,-35.5613 62.0668,-49.0888 111.118,-73.2379 28.15552,-13.8739 30.01488,-14.6643 81.0143,-36.5326 63.83733,-27.3108 90.22231,-39.51344 113.77381,-52.77744 17.3516,-9.6582 48.16292,-30.99954 60.29776,-41.80199 16.73431,-14.74698 26.2043,-24.75897 39.49089,-41.53093 22.66624,-28.54545 38.33161,-64.98834 43.29244,-100.55422 2.47664,-17.47506 2.3035,-50.75778 -0.35382,-69.81368 -4.96082,-36.09284 -13.90386,-70.25404 -33.11483,-126.01704 -21.95862,-63.93068 -23.55452,-68.4978 -29.92304,-89.30994 -12.39831,-40.04418 -17.62261,-73.06341 -15.85357,-99.84812 2.21317,-33.01923 15.76323,-67.53047 46.31108,-117.76205 4.8705,-8.07884 24.87941,-38.90296 29.04229,-44.61055 0.88076,-1.31737 1.58837,-2.81088 1.41524,-3.24975 -0.18068,-0.61427 -33.64932,-40.83461 -37.45839,-45.13751 -0.52695,-0.52694 -3.53807,-4.12749 -6.72234,-7.99152 -27.98087,-33.4581 -48.17045,-57.52007 -53.83889,-64.19407 -3.71873,-4.39089 -13.806,-16.50954 -22.5759,-26.95972 l -15.75571,-18.968379 -5.05116,2.81007 c -2.74013,1.49286 -7.174,4.12744 -9.82379,5.70813 -8.41609,5.09332 -32.76254,16.509539 -43.82992,20.636969 -32.31765,12.11872 -62.0668,17.47542 -96.06615,17.56327 -21.86979,0 -36.03638,-1.75631 -57.55162,-6.93747 -29.48341,-7.11318 -50.0253,-15.01678 -87.65457,-33.721659 l -19.03632,-9.39628 z"
     fill="#cd9900"
     id="path42-6"
     style="fill:#ff0000;stroke-width:0.752781" />
  <path
     d="m -540.5266,-1331.039 c -44.53307,22.7341 -78.11939,34.4259 -114.88745,39.9008 -49.02327,7.2377 -96.17649,1.5774 -144.26434,-17.2594 -9.54279,-3.7117 -31.99625,-14.8468 -45.84313,-22.7341 -5.89416,-3.4333 -11.13287,-5.9386 -11.60059,-5.6603 -0.46771,0.3712 -5.05258,5.4746 -10.10437,11.5062 -5.05179,5.9386 -9.44894,11.0423 -9.72973,11.3207 -0.28078,0.2783 -2.994,3.4332 -6.08107,7.0522 -5.89414,7.0522 -16.93394,19.8575 -41.53904,48.6234 -28.7223,33.498 -57.5377,67.2744 -63.0576,73.7699 -3.0874,3.5262 -8.0458,9.2787 -11.0397,12.7126 l -5.51978,6.2171 4.58418,6.7739 c 2.5261,3.7115 6.4554,9.6502 8.7944,13.2686 2.2453,3.5262 7.5781,11.6921 11.6946,18.0945 30.2188,46.6752 44.6265,75.7188 52.9531,106.7112 5.1456,19.0228 5.7072,23.47639 5.7072,44.54023 0.093,16.88861 -0.2808,21.80677 -2.1517,32.01375 -5.8945,32.94123 -14.3145,61.70724 -36.581,125.73396 -27.6928,79.43026 -39.8552,124.24888 -45.09438,166.56189 -1.8711,15.49664 -1.5905,59.29394 0.5613,72.37794 3.6487,22.7343 10.85258,43.7941 22.64078,66.2571 5.3327,10.11 17.308,29.4151 18.992,30.7117 0.3742,0.2784 1.9647,2.32258 3.5551,4.63728 17.2145,24.8732 52.3916,55.8632 89.34662,78.6921 36.48727,22.5426 52.76579,30.3378 153.24636,72.9332 89.43998,37.8546 125.5526,57.8995 167.4663,93.0735 13.47223,11.2236 16.46624,13.7292 16.84009,14.1905 0.28079,0.2784 2.90015,2.5056 5.89416,5.0113 6.08107,5.1066 4.58407,5.4805 15.15616,-3.6193 43.87842,-37.5762 65.58338,-51.8701 117.41373,-77.3875 29.75076,-14.6599 31.71547,-15.4951 85.60441,-38.6024 67.45424,-28.8582 95.33414,-41.7522 120.22004,-55.7677 18.3347,-10.2054 50.8917,-32.7559 63.7141,-44.1704 17.6824,-15.5825 27.688999,-26.1617 41.728399,-43.884 23.9504,-30.16268 40.5034,-68.67038 45.7453,-106.25138 2.6169,-18.4652 2.434,-53.6336 -0.3739,-73.76917 -5.2419,-38.13779 -14.6916,-74.2345 -34.9911,-133.15693 -23.2027,-67.55286 -24.889,-72.37875 -31.618399,-94.37006 -13.1008,-42.31301 -18.6211,-77.20305 -16.7518,-105.50532 2.3386,-34.89009 16.6564,-71.35659 48.934999,-124.43419 5.1464,-8.5366 26.289,-41.1072 30.6878,-47.1381 0.9306,-1.392 1.6783,-2.9702 1.4954,-3.4339 -0.1909,-0.6491 -35.5558,-43.1482 -39.5807,-47.6949 -0.5568,-0.5568 -3.7386,-4.3614 -7.1032,-8.4443 -29.566199,-35.3538 -50.899699,-60.7791 -56.889299,-67.8312 -3.9295,-4.6397 -14.5883,-17.445 -23.855,-28.4872 l -16.6484,-20.0431 -5.3374,2.9693 c -2.8954,1.5774 -7.5805,4.3613 -10.3804,6.0315 -8.8929,5.3819 -34.6188,17.4449 -46.3132,21.8062 -34.14871,12.8054 -65.58339,18.4656 -101.50908,18.5584 -23.10889,0 -38.07813,-1.8558 -60.81238,-7.3305 -31.15389,-7.5162 -52.85964,-15.8676 -92.62091,-35.6323 l -20.11488,-9.9287 z"
     fill="#cd9900"
     id="path42-3"
     style="stroke-width:0.795432" />
</svg>
