<svg width="1221" height="1422" viewBox="0 0 1221 1422" fill="none" xmlns="http://www.w3.org/2000/svg">
<path d="M584.594 13.182C528.608 41.7628 486.384 56.4615 440.16 63.3444C378.529 72.4435 319.249 65.3275 258.794 41.6462C246.797 36.98 218.569 22.9812 201.161 13.0654C193.751 8.74915 187.165 5.59949 186.577 5.94946C185.989 6.41602 180.225 12.832 173.874 20.4148C167.523 27.8807 161.995 34.2969 161.642 34.6469C161.289 34.9968 157.878 38.9631 153.997 43.5128C146.587 52.3787 132.708 68.4772 101.775 104.641C65.666 146.754 29.4398 189.217 22.5004 197.383C18.619 201.816 12.3853 209.048 8.6215 213.365L1.68207 221.181L7.44533 229.697C10.621 234.363 15.5609 241.829 18.5014 246.378C21.3242 250.811 28.0284 261.077 33.2036 269.126C71.194 327.805 89.3071 364.318 99.7751 403.281C106.244 427.196 106.95 432.795 106.95 459.276C107.067 480.508 106.597 486.691 104.245 499.523C96.8346 540.936 86.2491 577.1 58.2561 657.593C23.4413 757.451 8.15103 813.796 1.56445 866.991C-0.787899 886.473 -0.435048 941.534 2.27015 957.983C6.85724 986.564 15.9138 1013.04 30.7336 1041.28C37.4378 1053.99 52.4928 1078.26 54.6099 1079.89C55.0804 1080.24 57.0799 1082.81 59.0794 1085.72C80.721 1116.99 124.945 1155.95 171.404 1184.65C217.275 1212.99 237.74 1222.79 364.062 1276.34C476.504 1323.93 521.904 1349.13 574.597 1393.35C591.534 1407.46 595.298 1410.61 595.768 1411.19C596.121 1411.54 599.414 1414.34 603.178 1417.49C610.823 1423.91 608.941 1424.38 622.232 1412.94C677.395 1365.7 704.682 1347.73 769.842 1315.65C807.244 1297.22 809.714 1296.17 877.462 1267.12C962.264 1230.84 997.314 1214.63 1028.6 1197.01C1051.65 1184.18 1092.58 1155.83 1108.7 1141.48C1130.93 1121.89 1143.51 1108.59 1161.16 1086.31C1191.27 1048.39 1212.08 999.979 1218.67 952.733C1221.96 929.519 1221.73 885.306 1218.2 859.992C1211.61 812.046 1199.73 766.666 1174.21 692.59C1145.04 607.664 1142.92 601.597 1134.46 573.95C1117.99 520.755 1111.05 476.892 1113.4 441.311C1116.34 397.448 1134.34 351.603 1174.92 284.875C1181.39 274.143 1207.97 233.196 1213.5 225.614C1214.67 223.864 1215.61 221.88 1215.38 221.297C1215.14 220.481 1170.68 167.052 1165.62 161.336C1164.92 160.636 1160.92 155.853 1156.69 150.72C1119.52 106.274 1092.7 74.3099 1085.17 65.4441C1080.23 59.6112 1066.83 43.5127 1055.18 29.6306L1034.25 4.43286L1027.54 8.16577C1023.9 10.1489 1018.01 13.6487 1014.49 15.7485C1003.31 22.5145 970.968 37.6799 956.266 43.1628C913.335 59.2614 873.816 66.3773 828.651 66.494C799.599 66.494 780.78 64.1609 752.199 57.2782C713.033 47.829 685.745 37.3298 635.758 12.4821L610.47 0L584.594 13.182Z" fill="#CD9900"/>
</svg>
